v -0.266280 0.517444 0.000000
v 0.343831 0.583892 0.000000
v -0.158976 -0.476545 0.000000
v 0.447602 -0.637914 0.000000
v 0.000000 -0.443565 0.425339
v 0.000000 0.408116 0.425339
v 0.000000 -0.484293 -0.425339
v 0.000000 0.276802 -0.425339
v 0.630155 0.000000 -0.262843
v 0.501943 0.000000 0.262843
v -0.633450 0.000000 -0.262843
v -0.521143 0.000000 0.262843
v 0.000000 0.700000 0.000000
v -0.200712 0.500136 0.250010
v -0.270914 0.616029 -0.250010
v -0.621785 0.443585 -0.154497
v -0.515551 0.319396 0.154497
v 0.129987 0.463115 0.250010
v 0.169126 0.524909 -0.250010
v 0.592812 0.364193 -0.154497
v 0.466776 0.216511 0.154497
v 0.000000 -0.700000 0.000000
v -0.125084 -0.445731 0.250010
v -0.330379 -0.671060 -0.250010
v -0.531946 -0.267622 -0.154497
v -0.307201 -0.167710 0.154497
v 0.237584 -0.505513 0.250010
v 0.411898 -0.642135 -0.250010
v 0.677419 -0.599690 -0.154497
v 0.600788 -0.408630 0.154497
v 0.000000 0.000000 0.500000
v 0.511804 -0.361795 0.404507
v -0.333737 -0.192337 0.404507
v 0.447508 0.243487 0.404507
v -0.495940 0.290410 0.404507
v 0.000000 0.000000 -0.500000
v 0.618066 -0.464666 -0.404507
v -0.549284 -0.410952 -0.404507
v 0.300776 0.162474 -0.404507
v -0.540887 0.489369 -0.404507
v 0.700000 0.000000 0.000000
v -0.700000 0.000000 0.000000
v -0.078910 0.615700 0.000000
v -0.177555 0.453618 0.129951
v -0.359036 0.645710 -0.129951
v -0.506278 0.519534 -0.080305
v -0.404847 0.432579 0.080305
v 0.158441 0.650866 0.000000
v 0.184990 0.449818 0.129951
v 0.296067 0.586564 -0.129951
v 0.476071 0.448843 -0.080305
v 0.372695 0.348928 0.080305
v -0.067501 -0.644887 0.000000
v -0.126281 -0.531703 0.129951
v -0.190570 -0.601935 -0.129951
v -0.411064 -0.411139 -0.080305
v -0.443692 -0.416941 0.080305
v 0.219249 -0.676685 0.000000
v 0.319353 -0.610251 0.129951
v 0.498021 -0.673879 -0.129951
v 0.591859 -0.614271 -0.080305
v 0.505036 -0.556577 0.080305
v -0.060904 -0.517736 0.351036
v 0.180518 -0.510339 0.351036
v 0.000000 -0.302923 0.480973
v 0.344887 -0.471963 0.431341
v -0.162534 -0.436969 0.431341
v -0.151462 0.471091 0.351036
v 0.086204 0.465160 0.351036
v 0.000000 0.453067 0.480973
v 0.297447 0.413116 0.431341
v -0.336553 0.451477 0.431341
v -0.057293 -0.566285 -0.351036
v 0.195157 -0.513243 -0.351036
v 0.000000 -0.271826 -0.480973
v 0.187490 -0.381511 -0.431341
v -0.291267 -0.517523 -0.431341
v -0.138219 0.497790 -0.351036
v 0.063764 0.399565 -0.351036
v 0.000000 0.186575 -0.480973
v 0.118665 0.166243 -0.431341
v -0.152909 0.409334 -0.431341
v 0.613411 0.170098 -0.216927
v 0.680769 -0.467381 -0.216927
v 0.619915 -0.060290 -0.346878
v 0.490130 0.092874 -0.346878
v 0.695809 0.000000 -0.136621
v 0.561875 0.176781 0.216927
v 0.552013 -0.116930 0.216927
v 0.558406 -0.190996 0.346878
v 0.520680 0.114756 0.346878
v 0.688634 0.000000 0.136621
v -0.659202 0.329974 -0.216927
v -0.621319 -0.185560 -0.216927
v -0.602484 -0.108418 -0.346878
v -0.586745 0.223564 -0.346878
v -0.686594 0.000000 -0.136621
v -0.530091 0.099023 0.216927
v -0.524963 -0.080476 0.216927
v -0.486091 -0.095342 0.346878
v -0.525942 0.122482 0.346878
v -0.526910 0.000000 0.136621
v -0.020394 0.469623 0.131438
v -0.075785 0.660138 -0.131438
v 0.146609 0.398534 0.131438
v 0.095491 0.641094 -0.131438
v -0.364736 0.426056 0.212662
v 0.000000 0.497936 0.262874
v -0.332315 0.448840 0.344101
v -0.509339 0.580215 -0.212662
v 0.000000 0.593051 -0.262874
v -0.435503 0.528971 -0.344101
v -0.569290 0.344532 0.000000
v -0.578976 0.422819 -0.293886
v -0.675478 0.211649 -0.081224
v -0.478510 0.306192 0.293886
v -0.545214 0.063309 0.081224
v 0.284594 0.341166 0.212662
v 0.286292 0.336505 0.344101
v 0.395025 0.437933 -0.212662
v 0.227355 0.306792 -0.344101
v 0.575515 0.309082 0.000000
v 0.416787 0.223361 -0.293886
v 0.689284 0.296115 -0.081224
v 0.386604 0.173189 0.293886
v 0.686374 0.192405 0.081224
v -0.025664 -0.587624 0.131438
v -0.163957 -0.694214 -0.131438
v 0.180886 -0.644711 0.131438
v 0.352508 -0.693770 -0.131438
v -0.252196 -0.474386 0.212662
v 0.000000 -0.488723 0.262874
v -0.190177 -0.354492 0.344101
v -0.398796 -0.523817 -0.212662
v 0.000000 -0.633027 -0.262874
v -0.447781 -0.601109 -0.344101
v -0.480251 -0.223860 0.000000
v -0.565709 -0.403432 -0.293886
v -0.543585 -0.047758 -0.081224
v -0.318731 -0.155634 0.293886
v -0.513266 -0.038570 0.081224
v 0.422726 -0.500388 0.212662
v 0.385691 -0.484243 0.344101
v 0.602154 -0.636133 -0.212662
v 0.390438 -0.504230 -0.344101
v 0.651390 -0.483449 0.000000
v 0.650445 -0.565588 -0.293886
v 0.698185 -0.530706 -0.081224
v 0.556563 -0.352500 0.293886
v 0.696234 -0.298692 0.081224
v 0.532869 -0.299672 0.475528
v -0.473118 -0.210690 0.475528
v 0.434585 0.278649 0.475528
v -0.532950 0.325400 0.475528
v 0.573564 0.000000 0.425320
v -0.559531 0.000000 0.425320
v 0.578089 -0.321241 -0.475528
v -0.498236 -0.297202 -0.475528
v 0.366471 0.062324 -0.475528
v -0.507251 0.385911 -0.475528
v 0.587292 0.000000 -0.425320
v -0.577719 0.000000 -0.425320
f 1 47 44
f 1 44 43
f 1 43 45
f 1 45 46
f 1 46 47
f 2 49 52
f 6 72 70
f 12 102 99
f 11 96 95
f 8 79 81
f 4 62 59
f 4 59 58
f 4 58 60
f 4 60 61
f 4 61 62
f 5 66 65
f 3 54 57
f 7 73 77
f 9 85 86
f 10 92 88
f 12 101 98
f 6 69 68
f 2 50 48
f 8 82 78
f 11 97 93
f 6 71 69
f 12 100 101
f 11 94 97
f 8 80 82
f 2 51 50
f 10 90 89
f 5 63 64
f 3 55 53
f 7 76 74
f 9 87 84
f 10 91 90
f 5 67 63
f 3 56 55
f 7 75 76
f 9 83 87
f 6 68 72
f 2 48 49
f 8 78 79
f 11 93 96
f 12 98 102
f 10 88 91
f 5 65 67
f 3 57 56
f 7 77 75
f 9 86 83
f 5 64 66
f 3 53 54
f 7 74 73
f 9 84 85
f 10 89 92
f 6 70 71
f 12 99 100
f 11 95 94
f 8 81 80
f 2 52 51
f 35 109 116
f 18 105 108
f 19 111 106
f 40 114 112
f 42 117 115
f 34 125 119
f 33 152 156
f 25 137 139
f 36 158 160
f 20 123 120
f 32 143 149
f 23 127 132
f 24 135 128
f 37 147 145
f 41 150 148
f 34 153 155
f 33 140 133
f 25 138 134
f 36 159 157
f 20 122 124
f 17 107 47
f 14 103 44
f 13 104 43
f 15 110 45
f 16 113 46
f 18 118 49
f 35 154 72
f 42 141 102
f 40 162 96
f 19 121 79
f 30 142 62
f 27 129 59
f 22 130 58
f 28 144 60
f 29 146 61
f 32 151 66
f 23 131 54
f 24 136 73
f 37 161 85
f 41 126 92
f 35 116 101
f 18 108 69
f 19 106 50
f 40 112 82
f 42 115 97
f 34 119 71
f 33 156 100
f 25 139 94
f 36 160 80
f 20 120 51
f 32 149 90
f 23 132 63
f 24 128 55
f 37 145 76
f 41 148 87
f 34 155 91
f 33 133 67
f 25 134 56
f 36 157 75
f 20 124 83
f 14 109 68
f 13 105 48
f 15 111 78
f 16 114 93
f 17 117 98
f 21 125 88
f 31 152 65
f 26 137 57
f 38 158 77
f 39 123 86
f 27 143 64
f 22 127 53
f 28 135 74
f 29 147 84
f 30 150 89
f 31 153 70
f 26 140 99
f 38 138 95
f 39 159 81
f 21 122 52
f 14 107 109
f 13 103 105
f 15 104 111
f 16 110 114
f 17 113 117
f 21 118 125
f 31 154 152
f 26 141 137
f 38 162 158
f 39 121 123
f 27 142 143
f 22 129 127
f 28 130 135
f 29 144 147
f 30 146 150
f 31 151 153
f 26 131 140
f 38 136 138
f 39 161 159
f 21 126 122
f 14 44 107
f 13 43 103
f 15 45 104
f 16 46 110
f 17 47 113
f 21 52 118
f 31 70 154
f 26 99 141
f 38 95 162
f 39 81 121
f 27 59 142
f 22 58 129
f 28 60 130
f 29 61 144
f 30 62 146
f 31 65 151
f 26 57 131
f 38 77 136
f 39 86 161
f 21 88 126
f 17 98 116
f 14 68 108
f 13 48 106
f 15 78 112
f 16 93 115
f 18 69 119
f 35 101 156
f 42 97 139
f 40 82 160
f 19 50 120
f 30 89 149
f 27 64 132
f 22 53 128
f 28 74 145
f 29 84 148
f 32 90 155
f 23 63 133
f 24 55 134
f 37 76 157
f 41 87 124
f 35 72 109
f 18 49 105
f 19 79 111
f 40 96 114
f 42 102 117
f 34 91 125
f 33 67 152
f 25 56 137
f 36 75 158
f 20 83 123
f 32 66 143
f 23 54 127
f 24 73 135
f 37 85 147
f 41 92 150
f 34 71 153
f 33 100 140
f 25 94 138
f 36 80 159
f 20 51 122
f 17 116 107
f 14 108 103
f 13 106 104
f 15 112 110
f 16 115 113
f 18 119 118
f 35 156 154
f 42 139 141
f 40 160 162
f 19 120 121
f 30 149 142
f 27 132 129
f 22 128 130
f 28 145 144
f 29 148 146
f 32 155 151
f 23 133 131
f 24 134 136
f 37 157 161
f 41 124 126
f 107 44 47
f 103 43 44
f 104 45 43
f 110 46 45
f 113 47 46
f 118 52 49
f 154 70 72
f 141 99 102
f 162 95 96
f 121 81 79
f 142 59 62
f 129 58 59
f 130 60 58
f 144 61 60
f 146 62 61
f 151 65 66
f 131 57 54
f 136 77 73
f 161 86 85
f 126 88 92
f 116 98 101
f 108 68 69
f 106 48 50
f 112 78 82
f 115 93 97
f 119 69 71
f 156 101 100
f 139 97 94
f 160 82 80
f 120 50 51
f 149 89 90
f 132 64 63
f 128 53 55
f 145 74 76
f 148 84 87
f 155 90 91
f 133 63 67
f 134 55 56
f 157 76 75
f 124 87 83
f 109 72 68
f 105 49 48
f 111 79 78
f 114 96 93
f 117 102 98
f 125 91 88
f 152 67 65
f 137 56 57
f 158 75 77
f 123 83 86
f 143 66 64
f 127 54 53
f 135 73 74
f 147 85 84
f 150 92 89
f 153 71 70
f 140 100 99
f 138 94 95
f 159 80 81
f 122 51 52
f 107 116 109
f 103 108 105
f 104 106 111
f 110 112 114
f 113 115 117
f 118 119 125
f 154 156 152
f 141 139 137
f 162 160 158
f 121 120 123
f 142 149 143
f 129 132 127
f 130 128 135
f 144 145 147
f 146 148 150
f 151 155 153
f 131 133 140
f 136 134 138
f 161 157 159
f 126 124 122