v -0.509154 0.140774 0.495000
v 0.021595 0.709182 0.495000
v 0.172249 -0.765112 0.495000
v 0.865764 -0.218072 0.495000
v 0.398355 -0.436746 0.916086
v -0.249895 0.294952 0.916086
v 0.496891 -0.547967 0.073914
v -0.342189 0.399127 0.073914
v 0.595624 0.396162 0.234785
v 0.530061 0.338076 0.755215
v -0.450494 -0.530648 0.234785
v -0.343820 -0.436140 0.755215
v -0.387868 0.450687 0.495000
v -0.384913 0.174246 0.742510
v -0.615959 0.240374 0.247490
v -0.596750 -0.172905 0.342048
v -0.459203 -0.166651 0.647952
v -0.088220 0.491243 0.742510
v 0.018135 0.818110 0.247490
v 0.149172 0.856064 0.342048
v 0.258614 0.664169 0.647952
v 0.531237 -0.586734 0.495000
v 0.262435 -0.644079 0.742510
v 0.182790 -0.897561 0.247490
v -0.109417 -0.810995 0.342048
v -0.135651 -0.640555 0.647952
v 0.645061 -0.333887 0.742510
v 0.855924 -0.305355 0.247490
v 1.000496 -0.104449 0.342048
v 0.818078 0.009435 0.647952
v 0.071684 -0.068023 0.990000
v 0.742158 0.026850 0.895462
v -0.116334 -0.627000 0.895462
v 0.270948 0.613704 0.895462
v -0.427516 -0.157533 0.895462
v 0.071684 -0.068023 -0.000000
v 1.039482 -0.117534 0.094538
v -0.064078 -0.941138 0.094538
v 0.147989 0.883727 0.094538
v -0.795052 -0.050059 0.094538
v 0.590394 0.391529 0.495000
v -0.447026 -0.527576 0.495000
v -0.443284 0.272688 0.495000
v -0.440625 0.157597 0.623652
v -0.564358 0.215116 0.366348
v -0.583565 0.017299 0.415498
v -0.511654 0.005196 0.574502
v -0.154655 0.603680 0.495000
v -0.033228 0.598118 0.623652
v 0.057380 0.837929 0.366348
v 0.117599 0.805757 0.415498
v 0.132650 0.703456 0.574502
v 0.367392 -0.708343 0.495000
v 0.216159 -0.701842 0.623652
v 0.212538 -0.850080 0.366348
v 0.043022 -0.812515 0.415498
v 0.036342 -0.719900 0.574502
v 0.820021 -0.327338 0.495000
v 0.767857 -0.288837 0.623652
v 0.954309 -0.210606 0.366348
v 0.947204 -0.132664 0.415498
v 0.842285 -0.128175 0.574502
v 0.327876 -0.552057 0.842526
v 0.525758 -0.381259 0.842526
v 0.294267 -0.319259 0.971163
v 0.613015 -0.258929 0.922028
v 0.166405 -0.552072 0.922028
v -0.333572 0.224661 0.842526
v -0.164724 0.400329 0.842526
v -0.148292 0.180270 0.971163
v -0.047342 0.470643 0.922028
v -0.386126 0.086974 0.922028
v 0.371282 -0.721818 0.147474
v 0.660327 -0.453888 0.147474
v 0.363988 -0.397956 0.018837
v 0.751025 -0.311417 0.067972
v 0.201470 -0.750576 0.067972
v -0.506405 0.336208 0.147474
v -0.261333 0.562292 0.147474
v -0.176082 0.211638 0.018837
v -0.098787 0.579846 0.067972
v -0.619745 0.192142 0.067972
v 0.176917 0.867647 0.280242
v 1.025771 -0.090138 0.280242
v 1.031248 -0.096148 0.151590
v 0.182961 0.861144 0.151590
v 0.595630 0.396168 0.359746
v 0.405927 0.523291 0.709758
v 0.683666 0.184843 0.709758
v 0.612163 0.226515 0.838410
v 0.423953 0.442496 0.838410
v 0.567063 0.370858 0.630255
v -0.565916 -0.381562 0.280242
v -0.234186 -0.771136 0.280242
v -0.228301 -0.781948 0.151590
v -0.561386 -0.389817 0.151590
v -0.448030 -0.528465 0.359746
v -0.392099 -0.310538 0.709758
v -0.255919 -0.534779 0.709758
v -0.271587 -0.514770 0.838410
v -0.385156 -0.336208 0.838410
v -0.350576 -0.442126 0.630255
v -0.352316 0.293316 0.625124
v -0.471703 0.375622 0.364876
v -0.203946 0.436485 0.625124
v -0.228331 0.597713 0.364876
v -0.438451 0.008440 0.705536
v -0.281062 0.330131 0.755245
v -0.413158 0.029732 0.835660
v -0.677079 0.094460 0.284464
v -0.391820 0.455148 0.234755
v -0.738599 0.108931 0.154340
v -0.522383 -0.185755 0.495000
v -0.735324 -0.105008 0.204052
v -0.464684 -0.410083 0.414588
v -0.435660 -0.149036 0.785948
v -0.401049 -0.349233 0.575412
v 0.110976 0.605529 0.705536
v 0.062514 0.545834 0.835660
v 0.107267 0.886948 0.284464
v 0.039013 0.833380 0.154340
v 0.189523 0.763190 0.495000
v 0.130730 0.900972 0.204052
v 0.208842 0.829983 0.414588
v 0.274666 0.614197 0.785948
v 0.361940 0.640271 0.575412
v 0.396387 -0.592055 0.625124
v 0.358852 -0.745272 0.364876
v 0.601965 -0.447016 0.625124
v 0.740076 -0.408699 0.364876
v 0.072283 -0.683606 0.705536
v 0.445204 -0.489626 0.755245
v 0.119498 -0.675193 0.835660
v 0.092532 -0.922084 0.284464
v 0.533972 -0.589821 0.234755
v 0.059190 -0.992342 0.154340
v -0.145522 -0.681667 0.495000
v -0.023019 -0.987015 0.204052
v -0.340037 -0.596459 0.414588
v -0.095095 -0.613079 0.785948
v -0.307086 -0.534204 0.575412
v 0.757777 -0.151560 0.705536
v 0.709408 -0.199116 0.835660
v 1.016327 -0.153454 0.284464
v 0.952814 -0.214331 0.154340
v 0.912617 -0.037911 0.495000
v 1.034692 -0.126617 0.204052
v 0.975714 -0.035014 0.414588
v 0.747991 0.025020 0.785948
v 0.808139 0.137711 0.575412
v 0.455819 0.012774 0.965773
v -0.070609 -0.413307 0.965773
v 0.199753 0.297149 0.965773
v -0.273945 -0.148625 0.965773
v 0.519850 0.329030 0.916067
v -0.318863 -0.414030 0.916067
v 0.858990 0.003999 0.024227
v -0.212526 -0.579147 0.024227
v 0.433872 0.420194 0.024227
v -0.485767 -0.171131 0.024227
v 0.595446 0.396005 0.073933
v -0.437947 -0.519532 0.073933
f 1 47 44
f 1 44 43
f 1 43 45
f 1 45 46
f 1 46 47
f 2 49 52
f 6 72 70
f 12 102 99
f 11 96 95
f 8 79 81
f 4 62 59
f 4 59 58
f 4 58 60
f 4 60 61
f 4 61 62
f 5 66 65
f 3 54 57
f 7 73 77
f 9 85 86
f 10 92 88
f 12 101 98
f 6 69 68
f 2 50 48
f 8 82 78
f 11 97 93
f 6 71 69
f 12 100 101
f 11 94 97
f 8 80 82
f 2 51 50
f 10 90 89
f 5 63 64
f 3 55 53
f 7 76 74
f 9 87 84
f 10 91 90
f 5 67 63
f 3 56 55
f 7 75 76
f 9 83 87
f 6 68 72
f 2 48 49
f 8 78 79
f 11 93 96
f 12 98 102
f 10 88 91
f 5 65 67
f 3 57 56
f 7 77 75
f 9 86 83
f 5 64 66
f 3 53 54
f 7 74 73
f 9 84 85
f 10 89 92
f 6 70 71
f 12 99 100
f 11 95 94
f 8 81 80
f 2 52 51
f 35 109 116
f 18 105 108
f 19 111 106
f 40 114 112
f 42 117 115
f 34 125 119
f 33 152 156
f 25 137 139
f 36 158 160
f 20 123 120
f 32 143 149
f 23 127 132
f 24 135 128
f 37 147 145
f 41 150 148
f 34 153 155
f 33 140 133
f 25 138 134
f 36 159 157
f 20 122 124
f 17 107 47
f 14 103 44
f 13 104 43
f 15 110 45
f 16 113 46
f 18 118 49
f 35 154 72
f 42 141 102
f 40 162 96
f 19 121 79
f 30 142 62
f 27 129 59
f 22 130 58
f 28 144 60
f 29 146 61
f 32 151 66
f 23 131 54
f 24 136 73
f 37 161 85
f 41 126 92
f 35 116 101
f 18 108 69
f 19 106 50
f 40 112 82
f 42 115 97
f 34 119 71
f 33 156 100
f 25 139 94
f 36 160 80
f 20 120 51
f 32 149 90
f 23 132 63
f 24 128 55
f 37 145 76
f 41 148 87
f 34 155 91
f 33 133 67
f 25 134 56
f 36 157 75
f 20 124 83
f 14 109 68
f 13 105 48
f 15 111 78
f 16 114 93
f 17 117 98
f 21 125 88
f 31 152 65
f 26 137 57
f 38 158 77
f 39 123 86
f 27 143 64
f 22 127 53
f 28 135 74
f 29 147 84
f 30 150 89
f 31 153 70
f 26 140 99
f 38 138 95
f 39 159 81
f 21 122 52
f 14 107 109
f 13 103 105
f 15 104 111
f 16 110 114
f 17 113 117
f 21 118 125
f 31 154 152
f 26 141 137
f 38 162 158
f 39 121 123
f 27 142 143
f 22 129 127
f 28 130 135
f 29 144 147
f 30 146 150
f 31 151 153
f 26 131 140
f 38 136 138
f 39 161 159
f 21 126 122
f 14 44 107
f 13 43 103
f 15 45 104
f 16 46 110
f 17 47 113
f 21 52 118
f 31 70 154
f 26 99 141
f 38 95 162
f 39 81 121
f 27 59 142
f 22 58 129
f 28 60 130
f 29 61 144
f 30 62 146
f 31 65 151
f 26 57 131
f 38 77 136
f 39 86 161
f 21 88 126
f 17 98 116
f 14 68 108
f 13 48 106
f 15 78 112
f 16 93 115
f 18 69 119
f 35 101 156
f 42 97 139
f 40 82 160
f 19 50 120
f 30 89 149
f 27 64 132
f 22 53 128
f 28 74 145
f 29 84 148
f 32 90 155
f 23 63 133
f 24 55 134
f 37 76 157
f 41 87 124
f 35 72 109
f 18 49 105
f 19 79 111
f 40 96 114
f 42 102 117
f 34 91 125
f 33 67 152
f 25 56 137
f 36 75 158
f 20 83 123
f 32 66 143
f 23 54 127
f 24 73 135
f 37 85 147
f 41 92 150
f 34 71 153
f 33 100 140
f 25 94 138
f 36 80 159
f 20 51 122
f 17 116 107
f 14 108 103
f 13 106 104
f 15 112 110
f 16 115 113
f 18 119 118
f 35 156 154
f 42 139 141
f 40 160 162
f 19 120 121
f 30 149 142
f 27 132 129
f 22 128 130
f 28 145 144
f 29 148 146
f 32 155 151
f 23 133 131
f 24 134 136
f 37 157 161
f 41 124 126
f 107 44 47
f 103 43 44
f 104 45 43
f 110 46 45
f 113 47 46
f 118 52 49
f 154 70 72
f 141 99 102
f 162 95 96
f 121 81 79
f 142 59 62
f 129 58 59
f 130 60 58
f 144 61 60
f 146 62 61
f 151 65 66
f 131 57 54
f 136 77 73
f 161 86 85
f 126 88 92
f 116 98 101
f 108 68 69
f 106 48 50
f 112 78 82
f 115 93 97
f 119 69 71
f 156 101 100
f 139 97 94
f 160 82 80
f 120 50 51
f 149 89 90
f 132 64 63
f 128 53 55
f 145 74 76
f 148 84 87
f 155 90 91
f 133 63 67
f 134 55 56
f 157 76 75
f 124 87 83
f 109 72 68
f 105 49 48
f 111 79 78
f 114 96 93
f 117 102 98
f 125 91 88
f 152 67 65
f 137 56 57
f 158 75 77
f 123 83 86
f 143 66 64
f 127 54 53
f 135 73 74
f 147 85 84
f 150 92 89
f 153 71 70
f 140 100 99
f 138 94 95
f 159 80 81
f 122 51 52
f 107 116 109
f 103 108 105
f 104 106 111
f 110 112 114
f 113 115 117
f 118 119 125
f 154 156 152
f 141 139 137
f 162 160 158
f 121 120 123
f 142 149 143
f 129 132 127
f 130 128 135
f 144 145 147
f 146 148 150
f 151 155 153
f 131 133 140
f 136 134 138
f 161 157 159
f 126 124 122