v -0.511638 0.123570 0.495000
v 0.000846 0.714246 0.495000
v 0.172361 -0.770022 0.495000
v 0.870173 -0.220071 0.495000
v 0.379458 -0.411043 0.916086
v -0.233774 0.267340 0.916086
v 0.482723 -0.525280 0.073914
v -0.325161 0.368436 0.073914
v 0.589663 0.400177 0.234785
v 0.527227 0.343738 0.755215
v -0.444988 -0.535107 0.234785
v -0.326380 -0.427891 0.755215
v -0.394284 0.444902 0.495000
v -0.393288 0.157729 0.742510
v -0.612495 0.236388 0.247490
v -0.574373 -0.177627 0.342048
v -0.448143 -0.170728 0.647952
v -0.076398 0.481434 0.742510
v -0.005098 0.803289 0.247490
v 0.141143 0.851752 0.342048
v 0.244164 0.670213 0.647952
v 0.535150 -0.583276 0.495000
v 0.258973 -0.634028 0.742510
v 0.242090 -0.850651 0.247490
v -0.109673 -0.819958 0.342048
v -0.120292 -0.663289 0.647952
v 0.659664 -0.324273 0.742510
v 0.839622 -0.307972 0.247490
v 0.976215 -0.084135 0.342048
v 0.800553 0.022472 0.647952
v 0.070433 -0.069187 0.990000
v 0.730728 0.038719 0.895462
v -0.118542 -0.605750 0.895462
v 0.258348 0.622986 0.895462
v -0.391393 -0.160761 0.895462
v 0.070433 -0.069187 -0.000000
v 1.029261 -0.099102 0.094538
v -0.070290 -0.924993 0.094538
v 0.150464 0.863376 0.094538
v -0.751184 -0.081741 0.094538
v 0.584522 0.395530 0.495000
v -0.443656 -0.533903 0.495000
v -0.449348 0.262062 0.495000
v -0.452302 0.151783 0.623652
v -0.571369 0.210274 0.366348
v -0.580492 0.004220 0.415498
v -0.506086 -0.011057 0.574502
v -0.164626 0.601690 0.495000
v -0.038466 0.596608 0.623652
v 0.020613 0.809726 0.366348
v 0.101847 0.799612 0.415498
v 0.114096 0.705885 0.574502
v 0.371166 -0.718026 0.495000
v 0.211220 -0.701605 0.623652
v 0.211289 -0.858365 0.366348
v 0.044610 -0.816194 0.415498
v 0.031907 -0.754039 0.574502
v 0.785965 -0.349625 0.495000
v 0.784559 -0.274210 0.623652
v 0.944007 -0.204489 0.366348
v 0.933971 -0.136639 0.415498
v 0.849805 -0.116021 0.574502
v 0.321586 -0.541981 0.842526
v 0.527743 -0.374588 0.842526
v 0.278230 -0.299060 0.971163
v 0.605262 -0.242479 0.922028
v 0.154721 -0.531699 0.922028
v -0.321664 0.198359 0.842526
v -0.142123 0.378369 0.842526
v -0.147169 0.171534 0.971163
v -0.034365 0.458116 0.922028
v -0.377002 0.072432 0.922028
v 0.380129 -0.703024 0.147474
v 0.650077 -0.442203 0.147474
v 0.359051 -0.388468 0.018837
v 0.730171 -0.288880 0.067972
v 0.196894 -0.748800 0.067972
v -0.516042 0.320676 0.147474
v -0.263861 0.558004 0.147474
v -0.175109 0.202442 0.018837
v -0.074967 0.565825 0.067972
v -0.612352 0.170529 0.067972
v 0.171985 0.860467 0.280242
v 1.006624 -0.062589 0.280242
v 1.005453 -0.060991 0.151590
v 0.187562 0.843718 0.151590
v 0.589693 0.400204 0.359746
v 0.394182 0.514719 0.709758
v 0.669389 0.201557 0.709758
v 0.601818 0.235111 0.838410
v 0.426989 0.444008 0.838410
v 0.565359 0.378208 0.630255
v -0.563310 -0.381945 0.280242
v -0.254247 -0.742594 0.280242
v -0.265259 -0.736147 0.151590
v -0.556422 -0.396743 0.151590
v -0.440117 -0.530704 0.359746
v -0.385387 -0.314033 0.709758
v -0.244131 -0.536861 0.709758
v -0.261782 -0.502062 0.838410
v -0.375443 -0.335407 0.838410
v -0.323488 -0.425276 0.630255
v -0.353959 0.276195 0.625124
v -0.490853 0.357900 0.364876
v -0.210092 0.444023 0.625124
v -0.231843 0.597765 0.364876
v -0.439013 0.001741 0.705536
v -0.257279 0.293342 0.755245
v -0.410593 0.023567 0.835660
v -0.670624 0.089939 0.284464
v -0.398034 0.449051 0.234755
v -0.701995 0.129873 0.154340
v -0.493737 -0.189925 0.495000
v -0.698882 -0.117010 0.204052
v -0.459098 -0.432473 0.414588
v -0.418451 -0.156282 0.785948
v -0.393616 -0.348825 0.575412
v 0.109971 0.616576 0.705536
v 0.072674 0.578064 0.835660
v 0.091568 0.881566 0.284464
v 0.032426 0.830109 0.154340
v 0.191510 0.751129 0.495000
v 0.119996 0.895786 0.204052
v 0.213496 0.812331 0.414588
v 0.261189 0.624860 0.785948
v 0.362818 0.626010 0.575412
v 0.401038 -0.586752 0.625124
v 0.415646 -0.696604 0.364876
v 0.624735 -0.447978 0.625124
v 0.708071 -0.431605 0.364876
v 0.066779 -0.695222 0.705536
v 0.455468 -0.495129 0.755245
v 0.112660 -0.690978 0.835660
v 0.092091 -0.936919 0.284464
v 0.535514 -0.583679 0.234755
v 0.080817 -0.979559 0.154340
v -0.146090 -0.725285 0.495000
v -0.022076 -0.982481 0.204052
v -0.319414 -0.599569 0.414588
v -0.105421 -0.628367 0.785948
v -0.283676 -0.537248 0.575412
v 0.760397 -0.133455 0.705536
v 0.727723 -0.195789 0.835660
v 0.988237 -0.155849 0.284464
v 0.934568 -0.207363 0.154340
v 0.895251 -0.029757 0.495000
v 1.014389 -0.105968 0.204052
v 0.956818 -0.009147 0.414588
v 0.730736 0.035987 0.785948
v 0.773942 0.168929 0.575412
v 0.451259 0.024083 0.965773
v -0.068900 -0.401448 0.965773
v 0.204988 0.305353 0.965773
v -0.272555 -0.154766 0.965773
v 0.513922 0.331710 0.916067
v -0.294019 -0.398637 0.916067
v 0.821317 0.066611 0.024227
v -0.188070 -0.617363 0.024227
v 0.375379 0.411226 0.024227
v -0.454035 -0.185963 0.024227
v 0.589342 0.399887 0.073933
v -0.415787 -0.508710 0.073933
f 1 47 44
f 1 44 43
f 1 43 45
f 1 45 46
f 1 46 47
f 2 49 52
f 6 72 70
f 12 102 99
f 11 96 95
f 8 79 81
f 4 62 59
f 4 59 58
f 4 58 60
f 4 60 61
f 4 61 62
f 5 66 65
f 3 54 57
f 7 73 77
f 9 85 86
f 10 92 88
f 12 101 98
f 6 69 68
f 2 50 48
f 8 82 78
f 11 97 93
f 6 71 69
f 12 100 101
f 11 94 97
f 8 80 82
f 2 51 50
f 10 90 89
f 5 63 64
f 3 55 53
f 7 76 74
f 9 87 84
f 10 91 90
f 5 67 63
f 3 56 55
f 7 75 76
f 9 83 87
f 6 68 72
f 2 48 49
f 8 78 79
f 11 93 96
f 12 98 102
f 10 88 91
f 5 65 67
f 3 57 56
f 7 77 75
f 9 86 83
f 5 64 66
f 3 53 54
f 7 74 73
f 9 84 85
f 10 89 92
f 6 70 71
f 12 99 100
f 11 95 94
f 8 81 80
f 2 52 51
f 35 109 116
f 18 105 108
f 19 111 106
f 40 114 112
f 42 117 115
f 34 125 119
f 33 152 156
f 25 137 139
f 36 158 160
f 20 123 120
f 32 143 149
f 23 127 132
f 24 135 128
f 37 147 145
f 41 150 148
f 34 153 155
f 33 140 133
f 25 138 134
f 36 159 157
f 20 122 124
f 17 107 47
f 14 103 44
f 13 104 43
f 15 110 45
f 16 113 46
f 18 118 49
f 35 154 72
f 42 141 102
f 40 162 96
f 19 121 79
f 30 142 62
f 27 129 59
f 22 130 58
f 28 144 60
f 29 146 61
f 32 151 66
f 23 131 54
f 24 136 73
f 37 161 85
f 41 126 92
f 35 116 101
f 18 108 69
f 19 106 50
f 40 112 82
f 42 115 97
f 34 119 71
f 33 156 100
f 25 139 94
f 36 160 80
f 20 120 51
f 32 149 90
f 23 132 63
f 24 128 55
f 37 145 76
f 41 148 87
f 34 155 91
f 33 133 67
f 25 134 56
f 36 157 75
f 20 124 83
f 14 109 68
f 13 105 48
f 15 111 78
f 16 114 93
f 17 117 98
f 21 125 88
f 31 152 65
f 26 137 57
f 38 158 77
f 39 123 86
f 27 143 64
f 22 127 53
f 28 135 74
f 29 147 84
f 30 150 89
f 31 153 70
f 26 140 99
f 38 138 95
f 39 159 81
f 21 122 52
f 14 107 109
f 13 103 105
f 15 104 111
f 16 110 114
f 17 113 117
f 21 118 125
f 31 154 152
f 26 141 137
f 38 162 158
f 39 121 123
f 27 142 143
f 22 129 127
f 28 130 135
f 29 144 147
f 30 146 150
f 31 151 153
f 26 131 140
f 38 136 138
f 39 161 159
f 21 126 122
f 14 44 107
f 13 43 103
f 15 45 104
f 16 46 110
f 17 47 113
f 21 52 118
f 31 70 154
f 26 99 141
f 38 95 162
f 39 81 121
f 27 59 142
f 22 58 129
f 28 60 130
f 29 61 144
f 30 62 146
f 31 65 151
f 26 57 131
f 38 77 136
f 39 86 161
f 21 88 126
f 17 98 116
f 14 68 108
f 13 48 106
f 15 78 112
f 16 93 115
f 18 69 119
f 35 101 156
f 42 97 139
f 40 82 160
f 19 50 120
f 30 89 149
f 27 64 132
f 22 53 128
f 28 74 145
f 29 84 148
f 32 90 155
f 23 63 133
f 24 55 134
f 37 76 157
f 41 87 124
f 35 72 109
f 18 49 105
f 19 79 111
f 40 96 114
f 42 102 117
f 34 91 125
f 33 67 152
f 25 56 137
f 36 75 158
f 20 83 123
f 32 66 143
f 23 54 127
f 24 73 135
f 37 85 147
f 41 92 150
f 34 71 153
f 33 100 140
f 25 94 138
f 36 80 159
f 20 51 122
f 17 116 107
f 14 108 103
f 13 106 104
f 15 112 110
f 16 115 113
f 18 119 118
f 35 156 154
f 42 139 141
f 40 160 162
f 19 120 121
f 30 149 142
f 27 132 129
f 22 128 130
f 28 145 144
f 29 148 146
f 32 155 151
f 23 133 131
f 24 134 136
f 37 157 161
f 41 124 126
f 107 44 47
f 103 43 44
f 104 45 43
f 110 46 45
f 113 47 46
f 118 52 49
f 154 70 72
f 141 99 102
f 162 95 96
f 121 81 79
f 142 59 62
f 129 58 59
f 130 60 58
f 144 61 60
f 146 62 61
f 151 65 66
f 131 57 54
f 136 77 73
f 161 86 85
f 126 88 92
f 116 98 101
f 108 68 69
f 106 48 50
f 112 78 82
f 115 93 97
f 119 69 71
f 156 101 100
f 139 97 94
f 160 82 80
f 120 50 51
f 149 89 90
f 132 64 63
f 128 53 55
f 145 74 76
f 148 84 87
f 155 90 91
f 133 63 67
f 134 55 56
f 157 76 75
f 124 87 83
f 109 72 68
f 105 49 48
f 111 79 78
f 114 96 93
f 117 102 98
f 125 91 88
f 152 67 65
f 137 56 57
f 158 75 77
f 123 83 86
f 143 66 64
f 127 54 53
f 135 73 74
f 147 85 84
f 150 92 89
f 153 71 70
f 140 100 99
f 138 94 95
f 159 80 81
f 122 51 52
f 107 116 109
f 103 108 105
f 104 106 111
f 110 112 114
f 113 115 117
f 118 119 125
f 154 156 152
f 141 139 137
f 162 160 158
f 121 120 123
f 142 149 143
f 129 132 127
f 130 128 135
f 144 145 147
f 146 148 150
f 151 155 153
f 131 133 140
f 136 134 138
f 161 157 159
f 126 124 122