v -0.536787 0.210133 0.495000
v -0.107711 0.639325 0.495000
v 0.153228 -0.486804 0.495000
v 0.727677 -0.244270 0.495000
v 0.259263 -0.368855 0.916086
v -0.266375 0.292315 0.916086
v 0.284780 -0.400952 0.073914
v -0.184704 0.189585 0.073914
v 0.475323 0.365190 0.234785
v 0.370891 0.282165 0.755215
v -0.507313 -0.416018 0.234785
v -0.415640 -0.343136 0.755215
v -0.445898 0.518126 0.495000
v -0.476737 0.237718 0.742510
v -0.605761 0.287740 0.247490
v -0.772511 -0.064330 0.342048
v -0.609252 -0.093460 0.647952
v -0.197218 0.411746 0.742510
v -0.206093 0.485280 0.247490
v 0.221206 0.623959 0.342048
v 0.211533 0.428263 0.647952
v 0.416626 -0.566793 0.495000
v 0.160768 -0.443579 0.742510
v 0.145431 -0.752496 0.247490
v -0.261315 -0.558123 0.342048
v -0.145384 -0.339290 0.647952
v 0.479590 -0.267866 0.742510
v 0.703726 -0.269993 0.247490
v 0.886840 -0.071550 0.342048
v 0.704318 0.029566 0.647952
v -0.014636 -0.024333 0.990000
v 0.607394 0.011231 0.895462
v -0.154705 -0.378825 0.895462
v 0.183032 0.440936 0.895462
v -0.579763 -0.105759 0.895462
v -0.014636 -0.024333 -0.000000
v 0.755779 -0.002560 0.094538
v -0.188532 -0.684430 0.094538
v 0.118134 0.286479 0.094538
v -0.739297 0.021991 0.094538
v 0.527824 0.406928 0.495000
v -0.557096 -0.455595 0.495000
v -0.446940 0.394181 0.495000
v -0.426961 0.212742 0.623652
v -0.692810 0.256734 0.366348
v -0.727861 0.066606 0.415498
v -0.592948 0.061462 0.574502
v -0.289566 0.573377 0.495000
v -0.144463 0.432381 0.623652
v -0.145971 0.611770 0.366348
v 0.078164 0.615956 0.415498
v 0.059157 0.472640 0.574502
v 0.326287 -0.560283 0.495000
v 0.213074 -0.510755 0.623652
v 0.208873 -0.607777 0.366348
v -0.079757 -0.594093 0.415498
v -0.101842 -0.619108 0.574502
v 0.572781 -0.414229 0.495000
v 0.609160 -0.300729 0.623652
v 0.791417 -0.242045 0.366348
v 0.826992 -0.136724 0.415498
v 0.721067 -0.145571 0.574502
v 0.257658 -0.463640 0.842526
v 0.440194 -0.308929 0.842526
v 0.172402 -0.259598 0.971163
v 0.545485 -0.178486 0.922028
v 0.129577 -0.464200 0.922028
v -0.422126 0.247112 0.842526
v -0.234169 0.388881 0.842526
v -0.295209 0.328584 0.971163
v -0.038837 0.480357 0.922028
v -0.555417 0.118878 0.922028
v 0.291206 -0.500093 0.147474
v 0.453423 -0.302176 0.147474
v 0.153098 -0.235317 0.018837
v 0.366181 -0.205041 0.067972
v 0.079741 -0.607385 0.067972
v -0.428651 0.276452 0.147474
v -0.210446 0.323320 0.147474
v -0.129572 0.120238 0.018837
v -0.024855 0.177069 0.067972
v -0.385925 0.199572 0.067972
v 0.356423 0.485743 0.280242
v 0.806718 0.034262 0.280242
v 0.505851 0.313277 0.151590
v 0.307962 0.349559 0.151590
v 0.529159 0.407990 0.359746
v 0.309989 0.457306 0.709758
v 0.482796 0.223430 0.709758
v 0.537318 0.172593 0.838410
v 0.318724 0.385835 0.838410
v 0.522093 0.402372 0.630255
v -0.732312 -0.176367 0.280242
v -0.382668 -0.551625 0.280242
v -0.417234 -0.481516 0.151590
v -0.609413 -0.213902 0.151590
v -0.549363 -0.449447 0.359746
v -0.483206 -0.271814 0.709758
v -0.368656 -0.407365 0.709758
v -0.332510 -0.397594 0.838410
v -0.498359 -0.253964 0.838410
v -0.401681 -0.332039 0.630255
v -0.304080 0.307349 0.625124
v -0.479366 0.439741 0.364876
v -0.128727 0.352538 0.625124
v -0.332808 0.527743 0.364876
v -0.558648 0.080649 0.705536
v -0.318574 0.357973 0.755245
v -0.549267 0.119032 0.835660
v -0.769772 0.112471 0.284464
v -0.379924 0.435142 0.234755
v -0.680511 0.118035 0.154340
v -0.666814 -0.107387 0.495000
v -0.726624 -0.053947 0.204052
v -0.670049 -0.277570 0.414588
v -0.574079 -0.081763 0.785948
v -0.461700 -0.299873 0.575412
v -0.003901 0.412926 0.705536
v 0.000381 0.412093 0.835660
v 0.022046 0.557592 0.284464
v -0.027085 0.352380 0.154340
v 0.240421 0.568656 0.495000
v 0.170035 0.404455 0.204052
v 0.340385 0.633236 0.414588
v 0.177290 0.346613 0.785948
v 0.401929 0.550223 0.575412
v 0.319464 -0.485344 0.625124
v 0.289479 -0.667917 0.364876
v 0.520477 -0.409330 0.625124
v 0.690604 -0.348336 0.364876
v 0.083164 -0.546353 0.705536
v 0.283418 -0.399239 0.755245
v 0.056349 -0.415356 0.835660
v -0.000204 -0.676631 0.284464
v 0.376771 -0.516662 0.234755
v 0.009847 -0.770145 0.154340
v -0.245426 -0.489715 0.495000
v -0.205517 -0.687666 0.204052
v -0.392035 -0.384613 0.414588
v -0.164257 -0.339427 0.785948
v -0.371745 -0.356883 0.575412
v 0.621627 -0.151899 0.705536
v 0.583998 -0.162403 0.835660
v 0.849809 -0.147363 0.284464
v 0.600282 -0.175243 0.154340
v 0.791755 0.003187 0.495000
v 0.844136 -0.061716 0.204052
v 0.860763 -0.004126 0.414588
v 0.635619 0.046199 0.785948
v 0.714181 0.176475 0.575412
v 0.586329 0.073228 0.965773
v -0.253323 -0.481001 0.965773
v 0.151629 0.461262 0.965773
v -0.631655 -0.101833 0.965773
v 0.432612 0.331234 0.916067
v -0.450756 -0.371054 0.916067
v 0.635413 0.084734 0.024227
v -0.219428 -0.564209 0.024227
v 0.232002 0.250501 0.024227
v -0.649068 -0.038361 0.024227
v 0.443507 0.339896 0.073933
v -0.465181 -0.382522 0.073933
f 1 47 44
f 1 44 43
f 1 43 45
f 1 45 46
f 1 46 47
f 2 49 52
f 6 72 70
f 12 102 99
f 11 96 95
f 8 79 81
f 4 62 59
f 4 59 58
f 4 58 60
f 4 60 61
f 4 61 62
f 5 66 65
f 3 54 57
f 7 73 77
f 9 85 86
f 10 92 88
f 12 101 98
f 6 69 68
f 2 50 48
f 8 82 78
f 11 97 93
f 6 71 69
f 12 100 101
f 11 94 97
f 8 80 82
f 2 51 50
f 10 90 89
f 5 63 64
f 3 55 53
f 7 76 74
f 9 87 84
f 10 91 90
f 5 67 63
f 3 56 55
f 7 75 76
f 9 83 87
f 6 68 72
f 2 48 49
f 8 78 79
f 11 93 96
f 12 98 102
f 10 88 91
f 5 65 67
f 3 57 56
f 7 77 75
f 9 86 83
f 5 64 66
f 3 53 54
f 7 74 73
f 9 84 85
f 10 89 92
f 6 70 71
f 12 99 100
f 11 95 94
f 8 81 80
f 2 52 51
f 35 109 116
f 18 105 108
f 19 111 106
f 40 114 112
f 42 117 115
f 34 125 119
f 33 152 156
f 25 137 139
f 36 158 160
f 20 123 120
f 32 143 149
f 23 127 132
f 24 135 128
f 37 147 145
f 41 150 148
f 34 153 155
f 33 140 133
f 25 138 134
f 36 159 157
f 20 122 124
f 17 107 47
f 14 103 44
f 13 104 43
f 15 110 45
f 16 113 46
f 18 118 49
f 35 154 72
f 42 141 102
f 40 162 96
f 19 121 79
f 30 142 62
f 27 129 59
f 22 130 58
f 28 144 60
f 29 146 61
f 32 151 66
f 23 131 54
f 24 136 73
f 37 161 85
f 41 126 92
f 35 116 101
f 18 108 69
f 19 106 50
f 40 112 82
f 42 115 97
f 34 119 71
f 33 156 100
f 25 139 94
f 36 160 80
f 20 120 51
f 32 149 90
f 23 132 63
f 24 128 55
f 37 145 76
f 41 148 87
f 34 155 91
f 33 133 67
f 25 134 56
f 36 157 75
f 20 124 83
f 14 109 68
f 13 105 48
f 15 111 78
f 16 114 93
f 17 117 98
f 21 125 88
f 31 152 65
f 26 137 57
f 38 158 77
f 39 123 86
f 27 143 64
f 22 127 53
f 28 135 74
f 29 147 84
f 30 150 89
f 31 153 70
f 26 140 99
f 38 138 95
f 39 159 81
f 21 122 52
f 14 107 109
f 13 103 105
f 15 104 111
f 16 110 114
f 17 113 117
f 21 118 125
f 31 154 152
f 26 141 137
f 38 162 158
f 39 121 123
f 27 142 143
f 22 129 127
f 28 130 135
f 29 144 147
f 30 146 150
f 31 151 153
f 26 131 140
f 38 136 138
f 39 161 159
f 21 126 122
f 14 44 107
f 13 43 103
f 15 45 104
f 16 46 110
f 17 47 113
f 21 52 118
f 31 70 154
f 26 99 141
f 38 95 162
f 39 81 121
f 27 59 142
f 22 58 129
f 28 60 130
f 29 61 144
f 30 62 146
f 31 65 151
f 26 57 131
f 38 77 136
f 39 86 161
f 21 88 126
f 17 98 116
f 14 68 108
f 13 48 106
f 15 78 112
f 16 93 115
f 18 69 119
f 35 101 156
f 42 97 139
f 40 82 160
f 19 50 120
f 30 89 149
f 27 64 132
f 22 53 128
f 28 74 145
f 29 84 148
f 32 90 155
f 23 63 133
f 24 55 134
f 37 76 157
f 41 87 124
f 35 72 109
f 18 49 105
f 19 79 111
f 40 96 114
f 42 102 117
f 34 91 125
f 33 67 152
f 25 56 137
f 36 75 158
f 20 83 123
f 32 66 143
f 23 54 127
f 24 73 135
f 37 85 147
f 41 92 150
f 34 71 153
f 33 100 140
f 25 94 138
f 36 80 159
f 20 51 122
f 17 116 107
f 14 108 103
f 13 106 104
f 15 112 110
f 16 115 113
f 18 119 118
f 35 156 154
f 42 139 141
f 40 160 162
f 19 120 121
f 30 149 142
f 27 132 129
f 22 128 130
f 28 145 144
f 29 148 146
f 32 155 151
f 23 133 131
f 24 134 136
f 37 157 161
f 41 124 126
f 107 44 47
f 103 43 44
f 104 45 43
f 110 46 45
f 113 47 46
f 118 52 49
f 154 70 72
f 141 99 102
f 162 95 96
f 121 81 79
f 142 59 62
f 129 58 59
f 130 60 58
f 144 61 60
f 146 62 61
f 151 65 66
f 131 57 54
f 136 77 73
f 161 86 85
f 126 88 92
f 116 98 101
f 108 68 69
f 106 48 50
f 112 78 82
f 115 93 97
f 119 69 71
f 156 101 100
f 139 97 94
f 160 82 80
f 120 50 51
f 149 89 90
f 132 64 63
f 128 53 55
f 145 74 76
f 148 84 87
f 155 90 91
f 133 63 67
f 134 55 56
f 157 76 75
f 124 87 83
f 109 72 68
f 105 49 48
f 111 79 78
f 114 96 93
f 117 102 98
f 125 91 88
f 152 67 65
f 137 56 57
f 158 75 77
f 123 83 86
f 143 66 64
f 127 54 53
f 135 73 74
f 147 85 84
f 150 92 89
f 153 71 70
f 140 100 99
f 138 94 95
f 159 80 81
f 122 51 52
f 107 116 109
f 103 108 105
f 104 106 111
f 110 112 114
f 113 115 117
f 118 119 125
f 154 156 152
f 141 139 137
f 162 160 158
f 121 120 123
f 142 149 143
f 129 132 127
f 130 128 135
f 144 145 147
f 146 148 150
f 151 155 153
f 131 133 140
f 136 134 138
f 161 157 159
f 126 124 122